<svg xmlns="http://www.w3.org/2000/svg" xmlns:xlink="http://www.w3.org/1999/xlink" viewBox="0 0 107.78 111.6"><defs><style>.cls-1{font-size:100px;fill:#231f20;font-family:Montserrat-Bold, Montserrat;font-weight:700;}.cls-2{font-size:80px;}.cls-3{fill:url(#linear-gradient);}</style><linearGradient id="linear-gradient" x1="89.38" y1="87.8" x2="20.45" y2="18.88" gradientUnits="userSpaceOnUse"><stop offset="0" stop-color="#fa4e43"/><stop offset="0.14" stop-color="#e15457"/><stop offset="0.43" stop-color="#9f658c"/><stop offset="0.86" stop-color="#387fdf"/><stop offset="1" stop-color="#1488fc"/></linearGradient></defs><title>Asset 1</title><g id="Layer_2" data-name="Layer 2"><g id="Layer_1-2" data-name="Layer 1"><text class="cls-1" transform="translate(0 85)">C<tspan class="cls-2" x="73.3" y="0">r</tspan></text><path class="cls-3" d="M3.9,50c0-21.1,16.2-36.21,38-36.21,12.1,0,22.2,4.4,28.8,12.41L60.3,35.8a22.52,22.52,0,0,0-17.6-8.2c-13.1,0-22.4,9.2-22.4,22.4s9.3,22.4,22.4,22.4a22.31,22.31,0,0,0,17.6-8.3l10.4,9.6C64.1,81.8,54,86.2,41.8,86.2,20.1,86.2,3.9,71.1,3.9,50Z"/><path class="cls-3" d="M105.78,41.32V52.84c-1-.08-1.84-.16-2.8-.16-6.88,0-11.44,3.76-11.44,12V85H79.06V42H91v5.68C94,43.48,99.14,41.32,105.78,41.32Z"/></g></g></svg>