<?xml version="1.0" encoding="UTF-8"?>
<svg width="700pt" height="700pt" version="1.1" viewBox="0 0 700 700" xmlns="http://www.w3.org/2000/svg" xmlns:xlink="http://www.w3.org/1999/xlink">
 <defs>
  <symbol id="v" overflow="visible">
   <path d="m14.656-0.875c-0.76172 0.39844-1.5547 0.69531-2.375 0.89062-0.8125 0.19531-1.6641 0.29688-2.5469 0.29688-2.6562 0-4.7617-0.73828-6.3125-2.2188-1.5547-1.4883-2.3281-3.5039-2.3281-6.0469 0-2.5508 0.77344-4.5664 2.3281-6.0469 1.5508-1.4883 3.6562-2.2344 6.3125-2.2344 0.88281 0 1.7344 0.10156 2.5469 0.29688 0.82031 0.19922 1.6133 0.49609 2.375 0.89062v3.2969c-0.76172-0.51953-1.5117-0.89844-2.25-1.1406-0.74219-0.23828-1.5234-0.35938-2.3438-0.35938-1.4688 0-2.625 0.46875-3.4688 1.4062-0.83594 0.9375-1.25 2.2344-1.25 3.8906 0 1.6484 0.41406 2.9375 1.25 3.875 0.84375 0.9375 2 1.4062 3.4688 1.4062 0.82031 0 1.6016-0.11719 2.3438-0.35938 0.73828-0.23828 1.4883-0.61719 2.25-1.1406z"/>
  </symbol>
  <symbol id="d" overflow="visible">
   <path d="m10.719-8.7031c-0.33594-0.15625-0.66797-0.26953-1-0.34375-0.32422-0.082031-0.65625-0.125-1-0.125-0.98047 0-1.7344 0.32031-2.2656 0.95312-0.53125 0.625-0.79688 1.5273-0.79688 2.7031v5.5156h-3.8125v-11.969h3.8125v1.9688c0.48828-0.78125 1.0508-1.3477 1.6875-1.7031 0.64453-0.36328 1.4102-0.54688 2.2969-0.54688 0.13281 0 0.27344 0.007812 0.42188 0.015625 0.14453 0.011719 0.36328 0.03125 0.65625 0.0625z"/>
  </symbol>
  <symbol id="a" overflow="visible">
   <path d="m13.781-6.0156v1.0938h-8.9375c0.09375 0.89844 0.41406 1.5703 0.96875 2.0156 0.55078 0.44922 1.3281 0.67188 2.3281 0.67188 0.80078 0 1.625-0.11719 2.4688-0.35938 0.84375-0.23828 1.7109-0.59766 2.6094-1.0781v2.9531c-0.90625 0.33594-1.8125 0.58984-2.7188 0.76562s-1.8125 0.26562-2.7188 0.26562c-2.1562 0-3.8398-0.54688-5.0469-1.6406-1.1992-1.1016-1.7969-2.6484-1.7969-4.6406 0-1.9453 0.58594-3.4766 1.7656-4.5938 1.1758-1.125 2.8008-1.6875 4.875-1.6875 1.875 0 3.375 0.57031 4.5 1.7031 1.1328 1.125 1.7031 2.6367 1.7031 4.5312zm-3.9375-1.2656c0-0.72656-0.21484-1.3125-0.64062-1.75-0.41797-0.44531-0.96875-0.67188-1.6562-0.67188-0.74219 0-1.3438 0.21094-1.8125 0.625-0.46094 0.41797-0.74609 1.0156-0.85938 1.7969z"/>
  </symbol>
  <symbol id="f" overflow="visible">
   <path d="m7.2031-5.3906c-0.80469 0-1.4062 0.13672-1.8125 0.40625-0.39844 0.27344-0.59375 0.67188-0.59375 1.2031 0 0.48047 0.16016 0.85938 0.48438 1.1406 0.32031 0.27344 0.77344 0.40625 1.3594 0.40625 0.71875 0 1.3203-0.25391 1.8125-0.76562 0.48828-0.51953 0.73438-1.1719 0.73438-1.9531v-0.4375zm5.8438-1.4375v6.8281h-3.8594v-1.7656c-0.51172 0.71875-1.0898 1.2461-1.7344 1.5781-0.63672 0.33203-1.418 0.5-2.3438 0.5-1.2422 0-2.2461-0.35938-3.0156-1.0781-0.77344-0.72656-1.1562-1.6719-1.1562-2.8281 0-1.3945 0.47656-2.4219 1.4375-3.0781 0.96875-0.65625 2.4883-0.98438 4.5625-0.98438h2.25v-0.29688c0-0.60156-0.24219-1.0469-0.71875-1.3281-0.48047-0.28125-1.2266-0.42188-2.2344-0.42188-0.8125 0-1.5742 0.085937-2.2812 0.25-0.71094 0.15625-1.3672 0.40234-1.9688 0.73438v-2.9219c0.82031-0.19531 1.6445-0.34766 2.4688-0.45312 0.82031-0.10156 1.6484-0.15625 2.4844-0.15625 2.1562 0 3.7109 0.42969 4.6719 1.2812 0.95703 0.84375 1.4375 2.2266 1.4375 4.1406z"/>
  </symbol>
  <symbol id="b" overflow="visible">
   <path d="m6.0156-15.359v3.3906h3.9375v2.7344h-3.9375v5.0781c0 0.55469 0.10938 0.92969 0.32812 1.125 0.21875 0.19922 0.65625 0.29688 1.3125 0.29688h1.9688v2.7344h-3.2812c-1.5117 0-2.5859-0.3125-3.2188-0.9375-0.625-0.63281-0.9375-1.707-0.9375-3.2188v-5.0781h-1.9062v-2.7344h1.9062v-3.3906z"/>
  </symbol>
  <symbol id="i" overflow="visible">
   <path d="m9.9688-10.219v-6.4062h3.8594v16.625h-3.8594v-1.7344c-0.52344 0.71094-1.1016 1.2305-1.7344 1.5625-0.63672 0.32031-1.3711 0.48438-2.2031 0.48438-1.4688 0-2.6797-0.58203-3.625-1.75-0.94922-1.1758-1.4219-2.6875-1.4219-4.5312s0.47266-3.3477 1.4219-4.5156c0.94531-1.1758 2.1562-1.7656 3.625-1.7656 0.83203 0 1.5664 0.16797 2.2031 0.5 0.63281 0.32422 1.2109 0.83594 1.7344 1.5312zm-2.5156 7.75c0.82031 0 1.4453-0.29688 1.875-0.89062 0.42578-0.60156 0.64062-1.4727 0.64062-2.6094 0-1.1445-0.21484-2.0156-0.64062-2.6094-0.42969-0.59375-1.0547-0.89062-1.875-0.89062-0.8125 0-1.4336 0.29688-1.8594 0.89062-0.42969 0.59375-0.64062 1.4648-0.64062 2.6094 0 1.1367 0.21094 2.0078 0.64062 2.6094 0.42578 0.59375 1.0469 0.89062 1.8594 0.89062z"/>
  </symbol>
  <symbol id="c" overflow="visible">
   <path d="m8.2031-2.4688c0.82031 0 1.4453-0.29688 1.875-0.89062 0.42578-0.60156 0.64062-1.4727 0.64062-2.6094 0-1.1445-0.21484-2.0156-0.64062-2.6094-0.42969-0.59375-1.0547-0.89062-1.875-0.89062-0.82422 0-1.4531 0.30469-1.8906 0.90625-0.4375 0.59375-0.65625 1.4609-0.65625 2.5938 0 1.1367 0.21875 2.0078 0.65625 2.6094 0.4375 0.59375 1.0664 0.89062 1.8906 0.89062zm-2.5469-7.75c0.53125-0.69531 1.1133-1.207 1.75-1.5312 0.64453-0.33203 1.3828-0.5 2.2188-0.5 1.4688 0 2.6758 0.58984 3.625 1.7656 0.94531 1.168 1.4219 2.6719 1.4219 4.5156s-0.47656 3.3555-1.4219 4.5312c-0.94922 1.168-2.1562 1.75-3.625 1.75-0.83594 0-1.5742-0.16797-2.2188-0.5-0.63672-0.33203-1.2188-0.84766-1.75-1.5469v1.7344h-3.8125v-16.625h3.8125z"/>
  </symbol>
  <symbol id="h" overflow="visible">
   <path d="m0.26562-11.969h3.8281l3.2188 8.125 2.7344-8.125h3.8125l-5.0312 13.094c-0.5 1.332-1.0898 2.2656-1.7656 2.7969-0.66797 0.53125-1.5547 0.79688-2.6562 0.79688h-2.2188v-2.5h1.2031c0.64453 0 1.1133-0.10547 1.4062-0.3125 0.30078-0.21094 0.53125-0.57812 0.6875-1.1094l0.10938-0.34375z"/>
  </symbol>
  <symbol id="g" overflow="visible">
   <path d="m7.8438-8.875c0.86328 0 1.4844-0.16016 1.8594-0.48438 0.375-0.32031 0.5625-0.84766 0.5625-1.5781 0-0.72656-0.1875-1.25-0.5625-1.5625s-0.99609-0.46875-1.8594-0.46875h-1.7188v4.0938zm-1.7188 2.8438v6.0312h-4.1094v-15.953h6.2656c2.1016 0 3.6445 0.35547 4.625 1.0625 0.97656 0.71094 1.4688 1.8242 1.4688 3.3438 0 1.0547-0.25781 1.918-0.76562 2.5938-0.51172 0.67969-1.2773 1.1797-2.2969 1.5 0.5625 0.125 1.0625 0.41797 1.5 0.875 0.44531 0.44922 0.89844 1.1328 1.3594 2.0469l2.2344 4.5312h-4.375l-1.9531-3.9688c-0.38672-0.78906-0.78125-1.332-1.1875-1.625-0.40625-0.28906-0.94531-0.4375-1.6094-0.4375z"/>
  </symbol>
  <symbol id="u" overflow="visible">
   <path d="m1.8438-11.969h3.8125v11.969h-3.8125zm0-4.6562h3.8125v3.125h-3.8125z"/>
  </symbol>
  <symbol id="t" overflow="visible">
   <path d="m2.0156-15.953h4.1094v14.406c0 1.9883-0.54297 3.4727-1.625 4.4531-1.0742 0.97656-2.7031 1.4688-4.8906 1.4688h-0.84375v-3.1094h0.64062c0.85156 0 1.5-0.24219 1.9375-0.71875 0.44531-0.46875 0.67188-1.1641 0.67188-2.0938z"/>
  </symbol>
  <symbol id="s" overflow="visible">
   <path d="m11.188-11.594v2.9062c-0.82422-0.34375-1.6172-0.59766-2.375-0.76562-0.76172-0.16406-1.4805-0.25-2.1562-0.25-0.73047 0-1.2734 0.089844-1.625 0.26562-0.35547 0.17969-0.53125 0.46094-0.53125 0.84375 0 0.30469 0.13281 0.53906 0.40625 0.70312 0.26953 0.16797 0.75 0.28906 1.4375 0.35938l0.67188 0.09375c1.957 0.25 3.2734 0.66406 3.9531 1.2344 0.67578 0.57422 1.0156 1.4648 1.0156 2.6719 0 1.2812-0.46875 2.2461-1.4062 2.8906-0.9375 0.63672-2.3438 0.95312-4.2188 0.95312-0.78125 0-1.5938-0.0625-2.4375-0.1875s-1.7148-0.3125-2.6094-0.5625v-2.9062c0.75781 0.375 1.5391 0.65625 2.3438 0.84375 0.80078 0.17969 1.6133 0.26562 2.4375 0.26562 0.75 0 1.3125-0.10156 1.6875-0.3125 0.38281-0.20703 0.57812-0.50781 0.57812-0.90625 0-0.34375-0.13281-0.59766-0.39062-0.76562-0.26172-0.16406-0.78125-0.29688-1.5625-0.39062l-0.67188-0.09375c-1.6992-0.20703-2.8906-0.59766-3.5781-1.1719-0.6875-0.58203-1.0312-1.4609-1.0312-2.6406 0-1.2695 0.42969-2.207 1.2969-2.8125 0.875-0.61328 2.2109-0.92188 4.0156-0.92188 0.69531 0 1.4297 0.054688 2.2031 0.15625 0.78125 0.10547 1.6289 0.27344 2.5469 0.5z"/>
  </symbol>
  <symbol id="r" overflow="visible">
   <path d="m9.7031-16.625v2.5156h-2.1094c-0.54297 0-0.92188 0.10156-1.1406 0.29688-0.21094 0.19922-0.3125 0.53906-0.3125 1.0156v0.82812h3.2656v2.7344h-3.2656v9.2344h-3.8281v-9.2344h-1.8906v-2.7344h1.8906v-0.82812c0-1.3008 0.36328-2.2656 1.0938-2.8906 0.72656-0.625 1.8516-0.9375 3.375-0.9375z"/>
  </symbol>
  <symbol id="e" overflow="visible">
   <path d="m7.5312-9.5156c-0.84375 0-1.4922 0.30859-1.9375 0.92188-0.44922 0.60547-0.67188 1.4805-0.67188 2.625 0 1.1484 0.22266 2.0273 0.67188 2.6406 0.44531 0.60547 1.0938 0.90625 1.9375 0.90625 0.83203 0 1.4688-0.30078 1.9062-0.90625 0.44531-0.61328 0.67188-1.4922 0.67188-2.6406 0-1.1445-0.22656-2.0195-0.67188-2.625-0.4375-0.61328-1.0742-0.92188-1.9062-0.92188zm0-2.7344c2.0508 0 3.6562 0.55859 4.8125 1.6719 1.1641 1.1055 1.75 2.6406 1.75 4.6094s-0.58594 3.5117-1.75 4.625c-1.1562 1.1055-2.7617 1.6562-4.8125 1.6562-2.0625 0-3.6797-0.55078-4.8438-1.6562-1.168-1.1133-1.75-2.6562-1.75-4.625s0.58203-3.5039 1.75-4.6094c1.1641-1.1133 2.7812-1.6719 4.8438-1.6719z"/>
  </symbol>
  <symbol id="q" overflow="visible">
   <path d="m12.922-9.9688c0.48828-0.75 1.0625-1.3164 1.7188-1.7031 0.66406-0.38281 1.3984-0.57812 2.2031-0.57812 1.375 0 2.4219 0.42969 3.1406 1.2812 0.71875 0.84375 1.0781 2.0742 1.0781 3.6875v7.2812h-3.8438v-6.2344c0.007812-0.09375 0.015625-0.1875 0.015625-0.28125v-0.4375c0-0.84375-0.125-1.457-0.375-1.8438-0.25-0.38281-0.65234-0.57812-1.2031-0.57812-0.73047 0-1.293 0.30469-1.6875 0.90625-0.38672 0.59375-0.58984 1.4609-0.60938 2.5938v5.875h-3.8438v-6.2344c0-1.3203-0.11719-2.1758-0.34375-2.5625-0.23047-0.38281-0.63672-0.57812-1.2188-0.57812-0.73047 0-1.2969 0.30469-1.7031 0.90625-0.39844 0.60547-0.59375 1.4648-0.59375 2.5781v5.8906h-3.8438v-11.969h3.8438v1.75c0.46875-0.66406 1.0039-1.1719 1.6094-1.5156 0.61328-0.34375 1.2891-0.51562 2.0312-0.51562 0.82031 0 1.5508 0.19922 2.1875 0.59375 0.63281 0.39844 1.1133 0.96094 1.4375 1.6875z"/>
  </symbol>
  <symbol id="p" overflow="visible">
   <path d="m13.859-7.2812v7.2812h-3.8438v-5.5469c0-1.0508-0.027344-1.7695-0.078125-2.1562-0.042969-0.39453-0.12109-0.6875-0.23438-0.875-0.14844-0.25-0.35156-0.44141-0.60938-0.57812-0.25-0.14453-0.54297-0.21875-0.875-0.21875-0.79297 0-1.418 0.3125-1.875 0.9375-0.46094 0.61719-0.6875 1.4648-0.6875 2.5469v5.8906h-3.8125v-16.625h3.8125v6.4062c0.58203-0.69531 1.1953-1.207 1.8438-1.5312 0.64453-0.33203 1.3594-0.5 2.1406-0.5 1.3828 0 2.4297 0.42969 3.1406 1.2812 0.71875 0.84375 1.0781 2.0742 1.0781 3.6875z"/>
  </symbol>
  <symbol id="o" overflow="visible">
   <path d="m2.0156-15.953h4.5781l5.8125 10.938v-10.938h3.8906v15.953h-4.5938l-5.7969-10.938v10.938h-3.8906z"/>
  </symbol>
  <symbol id="n" overflow="visible">
   <path d="m1.7031-4.6562v-7.3125h3.8438v1.2031c0 0.64844-0.007813 1.4609-0.015625 2.4375v1.9688c0 0.96094 0.023438 1.6523 0.078125 2.0781 0.050781 0.41797 0.13281 0.72656 0.25 0.92188 0.15625 0.25 0.35938 0.44531 0.60938 0.57812 0.25781 0.13672 0.55078 0.20312 0.875 0.20312 0.80078 0 1.4258-0.30469 1.875-0.92188 0.45703-0.61328 0.6875-1.4688 0.6875-2.5625v-5.9062h3.8281v11.969h-3.8281v-1.7344c-0.57422 0.69922-1.1836 1.2148-1.8281 1.5469-0.64844 0.33203-1.3555 0.5-2.125 0.5-1.3867 0-2.4453-0.42188-3.1719-1.2656-0.71875-0.85156-1.0781-2.0859-1.0781-3.7031z"/>
  </symbol>
  <symbol id="m" overflow="visible">
   <path d="m13.859-7.2812v7.2812h-3.8438v-5.5781c0-1.0312-0.027344-1.7383-0.078125-2.125-0.042969-0.39453-0.12109-0.6875-0.23438-0.875-0.14844-0.25-0.35156-0.44141-0.60938-0.57812-0.25-0.14453-0.54297-0.21875-0.875-0.21875-0.79297 0-1.418 0.3125-1.875 0.9375-0.46094 0.61719-0.6875 1.4648-0.6875 2.5469v5.8906h-3.8125v-11.969h3.8125v1.75c0.58203-0.69531 1.1953-1.207 1.8438-1.5312 0.64453-0.33203 1.3594-0.5 2.1406-0.5 1.3828 0 2.4297 0.42969 3.1406 1.2812 0.71875 0.84375 1.0781 2.0742 1.0781 3.6875z"/>
  </symbol>
  <symbol id="l" overflow="visible">
   <path d="m2.0156-15.953h6.8125c2.0312 0 3.5859 0.45312 4.6719 1.3594 1.0938 0.89844 1.6406 2.1797 1.6406 3.8438 0 1.6797-0.54688 2.9688-1.6406 3.875-1.0859 0.89844-2.6406 1.3438-4.6719 1.3438h-2.7031v5.5312h-4.1094zm4.1094 2.9844v4.4531h2.2656c0.80078 0 1.4141-0.19141 1.8438-0.57812 0.4375-0.38281 0.65625-0.9375 0.65625-1.6562 0-0.70703-0.21875-1.2539-0.65625-1.6406-0.42969-0.38281-1.043-0.57812-1.8438-0.57812z"/>
  </symbol>
  <symbol id="k" overflow="visible">
   <path d="m1.8438-11.969h3.8125v11.75c0 1.6016-0.38672 2.8281-1.1562 3.6719-0.76172 0.84375-1.8711 1.2656-3.3281 1.2656h-1.8906v-2.5h0.65625c0.72656 0 1.2266-0.16797 1.5-0.5 0.26953-0.32422 0.40625-0.96875 0.40625-1.9375zm0-4.6562h3.8125v3.125h-3.8125z"/>
  </symbol>
  <symbol id="j" overflow="visible">
   <path d="m11.5-11.594v3.125c-0.52344-0.35156-1.043-0.61328-1.5625-0.78125-0.52344-0.17578-1.0625-0.26562-1.625-0.26562-1.0742 0-1.9062 0.3125-2.5 0.9375s-0.89062 1.4961-0.89062 2.6094c0 1.1172 0.29688 1.9844 0.89062 2.6094s1.4258 0.9375 2.5 0.9375c0.59375 0 1.1562-0.085937 1.6875-0.26562 0.53906-0.17578 1.0391-0.44141 1.5-0.79688v3.125c-0.59375 0.23047-1.1992 0.39453-1.8125 0.5-0.61719 0.11328-1.2344 0.17188-1.8594 0.17188-2.1562 0-3.8438-0.55078-5.0625-1.6562-1.2188-1.1133-1.8281-2.6562-1.8281-4.625s0.60938-3.5039 1.8281-4.6094c1.2188-1.1133 2.9062-1.6719 5.0625-1.6719 0.625 0 1.2383 0.058594 1.8438 0.17188 0.61328 0.10547 1.2227 0.26562 1.8281 0.48438z"/>
  </symbol>
 </defs>
 <g>
  <path d="m593.55 313.66c0 19.723-22.387 39.953-61.41 55.504-91.254 38.23-268.95 38.5-361.38 1.2344-93.289-35.75-81.25-87.508 13.32-118.23 3.3398-1.2109 5.1094-4.8555 3.9922-8.2305-1.1133-3.3711-4.7109-5.2422-8.1133-4.2227-104.62 32.887-119.36 101.3-17.383 141.54 22.625 96.582 358.55 96.504 378-1.3906 42.621-17.734 66.09-41.125 66.09-66.195-0.089844-3.5547-3-6.3906-6.5586-6.3906s-6.4688 2.8359-6.5625 6.3906zm-242.12 127.27c-83.043 0-154.91-23.223-172.5-53.703 92.75 32.598 253.39 32.047 345.48-1.2266-15.871 28.242-82.227 54.93-172.98 54.93z"/>
  <path d="m124.73 317.81c3.5273 23.523 46.254 25.23 79.871 28 8.5508 1.1445 16.98 3.0703 25.184 5.7539 47.371 15.641 70.953 6.7031 107.25-24.617l13.086 25.555h-0.003907c2.2852 4.5508 6.9414 7.4297 12.035 7.4375 18.27-2.4492 18.91-16.012 31.973-25.57l22.379 43.703c8.8008 15.5 27.395 2.8672 32.879-6.4766 3.1367-4.5273 6.9531-8.5508 11.309-11.93 4.6406-3.957 10.484-6.2188 16.582-6.418 7.4453-0.51562 14.676-2.6992 21.16-6.3906 6.6602-3.5273 12.555-8.332 17.352-14.145 3.8008-4.6758 8.5156-8.5273 13.855-11.312 16.688-9.0742 20.234-2.9688 38.109-13.059l0.003906-0.003906c10.605-4.9844 19.984-12.234 27.48-21.242 4.7734-3.75 6.3164-10.297 3.7188-15.781-5.5781-10.895-19.648-38.391-25.039-48.906l0.003906-0.003906c-2.8125-5.4492-9.2227-7.9805-15-5.9219-16.625 6.0117-14.289 17.297-28.523 25.07-4.0508-7.9219-16.301-31.879-20.125-39.375-7.7266-19.992-24.645-11.152-33.105 0.94922l7.5469-57.836v-0.003907c0.66016-5.6836-2.1953-11.203-7.2148-13.953-5.0195-2.75-11.207-2.1797-15.641 1.4375l-66.691 56.109 8.6523-66.566c0.75391-5.7148-2.0859-11.309-7.1445-14.07-5.0586-2.7656-11.297-2.1328-15.703 1.5898l-120.79 101.68c-24.844 3.8047-49.125 19.191-60.113 40.406-4.168 3.3672-8.6172 6.3711-13.297 8.9766-30.457 15.918-68.23 33.84-62.031 56.91zm449.27-66.48 12.988 25.375-1.3594 1.4648c-8.5977 10.598-26.688 22.688-41.168 24.477-14.98 2.3242-28.645 9.918-38.527 21.414-3.7969 4.6758-8.5117 8.5273-13.855 11.316-4.9492 2.8359-10.492 4.4844-16.188 4.8125-8.5117 0.46875-16.645 3.6562-23.211 9.0898-5.3047 4.1055-9.9609 8.9805-13.82 14.469-2.2891 4.0938-6.1367 7.0898-10.664 8.3125l-13.883-27.312c7.1914-7.3711 9.7227-9.2578 23.367-16.844 17.914-9.793 21.465-3.6797 40.547-14.438 19.199-10.535 15.867-16.77 33.648-26.809 5.625-3.3203 11.836-5.5234 18.297-6.5 7.8438-1.2422 15.391-3.9297 22.258-7.9219 12.488-7 14.719-13.352 21.57-20.906zm-43.012 4.5703c0.23828-0.09375 0.46875-0.19922 0.69141-0.32031 8.7891-3.7773 16.289-10.031 21.582-17.996 2.082-3.7969 5.3789-6.7812 9.3594-8.4766l5.2227 10.199c-9.4023 7.4766-9.9688 15.051-21.758 21.461-17.938 9.793-21.469 3.6797-40.555 14.438-19.199 10.535-15.871 16.77-33.648 26.809-17.938 9.7969-21.461 3.6758-40.547 14.414-8.5273 4.0898-16.363 9.4883-23.227 15.996l-4.0117-7.9219c6.8125-8.5352 15.5-15.379 25.391-20.004 5.1914-3.0625 10.957-5.0273 16.938-5.7734 14.973-2.3281 28.621-9.9219 38.5-21.414 3.8086-4.6758 8.5312-8.5273 13.883-11.312 14.062-7.875 18.18-3.9102 32.16-10.098zm-23.355-30.047 10.5 20.562h0.003907c-9.0273 0.94141-17.77 3.6992-25.699 8.1094-6.6602 3.5273-12.555 8.3359-17.352 14.145-7.8828 9.2109-18.812 15.281-30.797 17.109-6.125 0.027344-21.684 6.6367-29.527 12.066v-0.003906c-0.21875 0.11719-0.43359 0.25-0.63672 0.39062-7.0156 4.2734-13.266 9.6992-18.477 16.047-1.7656 1.6367-3.1211 3.6641-3.9648 5.9219-1.8633 1.0898-3.6562 2.2969-5.3672 3.6211-5.3125 4.1055-9.9766 8.9844-13.844 14.473-2.2734 4.1016-6.1172 7.1016-10.648 8.3125l-13.949-27.23 1.1289-1.1523c0.074219-0.066406 0.14062-0.14453 0.21094-0.21484 6-7.1094 27.438-20.391 38.938-21.797l0.003906 0.003906c8.3555-1.1836 16.41-3.9688 23.715-8.1992 7.0156-3.7227 13.281-8.7109 18.48-14.715 8.7656-9.7617 20.547-16.305 33.465-18.594 10.285-1.7891 20.031-5.8867 28.508-11.984l0.21484-0.17578c7.5234-5.7461 9.8711-11.074 15.074-16.695zm-20.746-13.754c2.0781-3.7969 5.375-6.7812 9.3555-8.4766l5.2188 10.203c-9.3984 7.4727-9.9648 15.051-21.75 21.438-17.938 9.7969-21.473 3.6797-40.562 14.438h0.003906c-7.0156 3.7227-13.281 8.7109-18.48 14.715-4.2344 4.9609-9.3828 9.0625-15.168 12.082-6.0039 3.5117-12.648 5.8008-19.543 6.7344l-0.14063 0.027344c-11.531 0.92578-37.516 16.043-44.152 23.707l-3.9375-7.9492v-0.039062h0.003906c5.0469-6.3555 11.211-11.73 18.188-15.871 6.0938-3.9609 17.5-9.5078 22.902-9.6758h0.003906c12.691-1.7266 24.578-7.2109 34.125-15.75 3.5-3.1055 6.125-6.7383 9.457-10.012 5.6641-5.0703 12.297-8.9414 19.5-11.375 8.0625-2.2969 12.832-1.6172 21.934-5.5664v0.003906c9.3633-3.7773 17.387-10.266 23.043-18.633zm-16.625-69.293c0.4375-0.54297 1.6289 0.050781 1.3945 0.77344l-9.5898 73.5c-10.812 5.8359-17.5 3.5273-29.387 8.6992-10.395 4.4102-19.512 11.363-26.512 20.227-5.2227-3.7891-11.148-6.4922-17.426-7.9492l3.8945-29.895zm-80.836-22.934c0.4375-0.48828 1.5977-0.09375 1.3906 0.73438-2.9102 22.242-12.25 93.723-14.957 114.78-21.148-3.6094-42.438-2.2305-63.684-9.2227l0.003907 0.003906c-8.7305-8.0508-19.73-13.211-31.5-14.777zm-174.56 132.75c17.16-25.625 65.188-40.727 88.863-16.512h0.003907c0.30859 0.40234 0.66016 0.76562 1.0547 1.0859 23.781 26.445-10.012 49.305-38.105 54.02-34.539 5.8477-71.441-9.9609-51.82-38.59zm54.074 51.52c32.277-5.7266 66.395-28.875 54.5-61.566v0.003906c7.3047 1.3828 14.691 2.2891 22.113 2.7109h0.25391c16.953 1.6758 35.438 2.2852 49.277 9.0664h-0.003906c-6.8711 3.7344-14.414 6.0625-22.195 6.8555-7.7539 2.0078-15.141 5.2383-21.875 9.5703-8.3438 4.5352-15.727 10.645-21.746 17.992-1.5508 1.4688-2.8008 3.2305-3.668 5.1836-3.5859 6.8398 2.4648 15.152 5.3359 21.102-15.152 11.734-30.188 26.094-49.27 29.941-28.336 5.5-56.543-12.746-84.469-12.992-28.051-2.3398-57.059-4.7695-59.625-16.93-4.1992-13.664 36.75-32.426 58.723-44.539 2.4102 27.648 42.527 39.984 72.648 33.605z"/>
  <use x="70" y="625.625" xlink:href="#v"/>
  <use x="86.054688" y="625.625" xlink:href="#d"/>
  <use x="96.839844" y="625.625" xlink:href="#a"/>
  <use x="111.679687" y="625.625" xlink:href="#f"/>
  <use x="126.4375" y="625.625" xlink:href="#b"/>
  <use x="136.894531" y="625.625" xlink:href="#a"/>
  <use x="151.730469" y="625.625" xlink:href="#i"/>
  <use x="175.007812" y="625.625" xlink:href="#c"/>
  <use x="190.664062" y="625.625" xlink:href="#h"/>
  <use x="212.539062" y="625.625" xlink:href="#g"/>
  <use x="229.382812" y="625.625" xlink:href="#f"/>
  <use x="244.144531" y="625.625" xlink:href="#c"/>
  <use x="259.804688" y="625.625" xlink:href="#c"/>
  <use x="275.460938" y="625.625" xlink:href="#u"/>
  <use x="282.960938" y="625.625" xlink:href="#b"/>
  <use x="301.035156" y="625.625" xlink:href="#t"/>
  <use x="309.171875" y="625.625" xlink:href="#a"/>
  <use x="324.007812" y="625.625" xlink:href="#s"/>
  <use x="70" y="647.5" xlink:href="#r"/>
  <use x="79.515625" y="647.5" xlink:href="#d"/>
  <use x="90.304688" y="647.5" xlink:href="#e"/>
  <use x="105.332031" y="647.5" xlink:href="#q"/>
  <use x="135.742188" y="647.5" xlink:href="#b"/>
  <use x="146.199219" y="647.5" xlink:href="#p"/>
  <use x="161.773438" y="647.5" xlink:href="#a"/>
  <use x="184.222656" y="647.5" xlink:href="#o"/>
  <use x="202.53125" y="647.5" xlink:href="#e"/>
  <use x="217.558594" y="647.5" xlink:href="#n"/>
  <use x="233.132812" y="647.5" xlink:href="#m"/>
  <use x="256.320312" y="647.5" xlink:href="#l"/>
  <use x="272.355469" y="647.5" xlink:href="#d"/>
  <use x="283.140625" y="647.5" xlink:href="#e"/>
  <use x="298.171875" y="647.5" xlink:href="#k"/>
  <use x="305.667969" y="647.5" xlink:href="#a"/>
  <use x="320.503906" y="647.5" xlink:href="#j"/>
  <use x="333.472656" y="647.5" xlink:href="#b"/>
 </g>
</svg>
