<?xml version="1.0" encoding="UTF-8"?>
<svg width="700pt" height="700pt" version="1.1" viewBox="0 0 700 700" xmlns="http://www.w3.org/2000/svg" xmlns:xlink="http://www.w3.org/1999/xlink">
 <defs>
  <symbol id="v" overflow="visible">
   <path d="m3.6562-0.21875c-0.1875 0.09375-0.38672 0.16797-0.59375 0.21875-0.19922 0.050781-0.40625 0.078125-0.625 0.078125-0.66797 0-1.1992-0.17969-1.5938-0.54688-0.38672-0.375-0.57812-0.87891-0.57812-1.5156 0-0.64453 0.19141-1.1484 0.57812-1.5156 0.39453-0.375 0.92578-0.5625 1.5938-0.5625 0.21875 0 0.42578 0.027344 0.625 0.078125 0.20703 0.054687 0.40625 0.125 0.59375 0.21875v0.82812c-0.1875-0.125-0.375-0.21875-0.5625-0.28125-0.17969-0.0625-0.37109-0.09375-0.57812-0.09375-0.36719 0-0.65625 0.12109-0.875 0.35938-0.21094 0.23047-0.3125 0.55469-0.3125 0.96875 0 0.40625 0.10156 0.73047 0.3125 0.96875 0.21875 0.23047 0.50781 0.34375 0.875 0.34375 0.20703 0 0.39844-0.023437 0.57812-0.078125 0.1875-0.0625 0.375-0.16016 0.5625-0.29688z"/>
  </symbol>
  <symbol id="d" overflow="visible">
   <path d="m2.6875-2.1719c-0.085938-0.039063-0.16797-0.070313-0.25-0.09375-0.085938-0.019531-0.16797-0.03125-0.25-0.03125-0.25 0-0.44531 0.085937-0.57812 0.25-0.125 0.15625-0.1875 0.38281-0.1875 0.67188v1.375h-0.96875v-2.9844h0.96875v0.48438c0.11328-0.19531 0.25-0.33594 0.40625-0.42188 0.16406-0.09375 0.35938-0.14062 0.57812-0.14062h0.10938c0.039063 0 0.09375 0.007812 0.15625 0.015625z"/>
  </symbol>
  <symbol id="c" overflow="visible">
   <path d="m3.4375-1.5v0.26562h-2.2344c0.03125 0.23047 0.11328 0.40234 0.25 0.51562 0.13281 0.10547 0.32812 0.15625 0.57812 0.15625 0.20703 0 0.41406-0.023438 0.625-0.078125 0.20703-0.0625 0.42188-0.15625 0.64062-0.28125v0.73438c-0.21875 0.09375-0.44531 0.16406-0.67188 0.20312-0.23047 0.039062-0.45312 0.0625-0.67188 0.0625-0.54297 0-0.96484-0.13281-1.2656-0.40625-0.30469-0.28125-0.45312-0.67188-0.45312-1.1719 0-0.47656 0.14453-0.85938 0.4375-1.1406 0.30078-0.28125 0.70703-0.42188 1.2188-0.42188 0.46875 0 0.84375 0.14062 1.125 0.42188s0.42188 0.66406 0.42188 1.1406zm-0.96875-0.32812c0-0.17578-0.058594-0.31641-0.17188-0.42188-0.10547-0.11328-0.24219-0.17188-0.40625-0.17188-0.1875 0-0.33984 0.054687-0.45312 0.15625-0.11719 0.10547-0.1875 0.25-0.21875 0.4375z"/>
  </symbol>
  <symbol id="b" overflow="visible">
   <path d="m1.7969-1.3438c-0.19922 0-0.35156 0.039062-0.45312 0.10938-0.09375 0.0625-0.14062 0.16406-0.14062 0.29688 0 0.11719 0.035156 0.21094 0.10938 0.28125 0.082031 0.0625 0.19531 0.09375 0.34375 0.09375 0.17578 0 0.32812-0.0625 0.45312-0.1875s0.1875-0.28516 0.1875-0.48438v-0.10938zm1.4688-0.35938v1.7031h-0.96875v-0.4375c-0.125 0.17969-0.27344 0.30859-0.4375 0.39062-0.15625 0.082031-0.35156 0.125-0.57812 0.125-0.3125 0-0.57031-0.085938-0.76562-0.26562-0.1875-0.1875-0.28125-0.42188-0.28125-0.70312 0-0.35156 0.11719-0.61328 0.35938-0.78125 0.23828-0.16406 0.61719-0.25 1.1406-0.25h0.5625v-0.0625c0-0.15625-0.0625-0.26562-0.1875-0.32812-0.11719-0.070312-0.29688-0.10938-0.54688-0.10938-0.21094 0-0.40234 0.023437-0.57812 0.0625-0.17969 0.042969-0.33984 0.10156-0.48438 0.17188v-0.71875c0.19531-0.050781 0.39844-0.085938 0.60938-0.10938 0.20703-0.03125 0.41406-0.046875 0.625-0.046875 0.53906 0 0.92969 0.10938 1.1719 0.32812 0.23828 0.21094 0.35938 0.55469 0.35938 1.0312z"/>
  </symbol>
  <symbol id="a" overflow="visible">
   <path d="m1.5-3.8438v0.85938h0.98438v0.67188h-0.98438v1.2812c0 0.13672 0.023438 0.23047 0.078125 0.28125 0.0625 0.042969 0.17578 0.0625 0.34375 0.0625h0.48438v0.6875h-0.8125c-0.38672 0-0.65625-0.078125-0.8125-0.23438s-0.23438-0.42188-0.23438-0.79688v-1.2812h-0.46875v-0.67188h0.46875v-0.85938z"/>
  </symbol>
  <symbol id="h" overflow="visible">
   <path d="m2.5-2.5469v-1.6094h0.95312v4.1562h-0.95312v-0.4375c-0.13672 0.17969-0.28125 0.30859-0.4375 0.39062-0.15625 0.082031-0.33984 0.125-0.54688 0.125-0.375 0-0.68359-0.14453-0.92188-0.4375-0.23047-0.28906-0.34375-0.67188-0.34375-1.1406 0-0.45703 0.11328-0.83203 0.34375-1.125 0.23828-0.28906 0.54688-0.4375 0.92188-0.4375 0.19531 0 0.375 0.042969 0.53125 0.125 0.16406 0.085938 0.31641 0.21484 0.45312 0.39062zm-0.64062 1.9375c0.20703 0 0.36328-0.070313 0.46875-0.21875 0.11328-0.15625 0.17188-0.37891 0.17188-0.67188 0-0.28125-0.058594-0.49219-0.17188-0.64062-0.10547-0.15625-0.26172-0.23438-0.46875-0.23438-0.19922 0-0.35547 0.078125-0.46875 0.23438-0.10547 0.14844-0.15625 0.35938-0.15625 0.64062 0 0.29297 0.050781 0.51562 0.15625 0.67188 0.11328 0.14844 0.26953 0.21875 0.46875 0.21875z"/>
  </symbol>
  <symbol id="g" overflow="visible">
   <path d="m2.0469-0.60938c0.20703 0 0.36328-0.070313 0.46875-0.21875 0.11328-0.15625 0.17188-0.37891 0.17188-0.67188 0-0.28125-0.058594-0.49219-0.17188-0.64062-0.10547-0.15625-0.26172-0.23438-0.46875-0.23438-0.19922 0-0.35547 0.078125-0.46875 0.23438-0.10547 0.14844-0.15625 0.35938-0.15625 0.64062 0 0.29297 0.050781 0.51562 0.15625 0.67188 0.11328 0.14844 0.26953 0.21875 0.46875 0.21875zm-0.625-1.9375c0.125-0.17578 0.26562-0.30469 0.42188-0.39062 0.16406-0.082031 0.35156-0.125 0.5625-0.125 0.36328 0 0.66406 0.14844 0.90625 0.4375 0.23828 0.29297 0.35938 0.66797 0.35938 1.125 0 0.46875-0.12109 0.85156-0.35938 1.1406-0.24219 0.29297-0.54297 0.4375-0.90625 0.4375-0.21094 0-0.39844-0.042969-0.5625-0.125-0.15625-0.082031-0.29688-0.21094-0.42188-0.39062v0.4375h-0.96875v-4.1562h0.96875z"/>
  </symbol>
  <symbol id="o" overflow="visible">
   <path d="m0.0625-2.9844h0.95312l0.8125 2.0156 0.6875-2.0156h0.95312l-1.2656 3.2656c-0.125 0.33203-0.27344 0.56641-0.4375 0.70312-0.16797 0.13281-0.39062 0.20312-0.67188 0.20312h-0.54688v-0.64062h0.29688c0.16406 0 0.28516-0.027344 0.35938-0.078125 0.070313-0.054688 0.12891-0.14062 0.17188-0.26562l0.03125-0.09375z"/>
  </symbol>
  <symbol id="f" overflow="visible">
   <path d="m2.9219-0.71875h-1.6094l-0.25 0.71875h-1.0312l1.4688-3.9844h1.2344l1.4688 3.9844h-1.0312zm-1.3594-0.75h1.0938l-0.53125-1.5781z"/>
  </symbol>
  <symbol id="n" overflow="visible">
   <path d="m2.875-2.8906v0.76562c-0.125-0.082031-0.25781-0.14453-0.39062-0.1875-0.13672-0.039062-0.27344-0.0625-0.40625-0.0625-0.27344 0-0.48047 0.078125-0.625 0.23438-0.14844 0.15625-0.21875 0.37109-0.21875 0.64062 0 0.28125 0.070313 0.5 0.21875 0.65625 0.14453 0.15625 0.35156 0.23438 0.625 0.23438 0.14453 0 0.28516-0.019531 0.42188-0.0625 0.13281-0.039063 0.25781-0.10938 0.375-0.20312v0.78125c-0.14844 0.0625-0.29688 0.10156-0.45312 0.125-0.15625 0.03125-0.3125 0.046875-0.46875 0.046875-0.54297 0-0.96484-0.13281-1.2656-0.40625-0.30469-0.28125-0.45312-0.67188-0.45312-1.1719 0-0.48828 0.14844-0.86719 0.45312-1.1406 0.30078-0.28125 0.72266-0.42188 1.2656-0.42188 0.15625 0 0.3125 0.015625 0.46875 0.046875 0.15625 0.023437 0.30469 0.0625 0.45312 0.125z"/>
  </symbol>
  <symbol id="m" overflow="visible">
   <path d="m3.4688-1.8281v1.8281h-0.96875v-1.3906c0-0.25781-0.007812-0.4375-0.015625-0.53125-0.011719-0.10156-0.03125-0.17578-0.0625-0.21875-0.03125-0.0625-0.085937-0.10938-0.15625-0.14062-0.0625-0.039062-0.13281-0.0625-0.20312-0.0625-0.21094 0-0.37109 0.078125-0.48438 0.23438-0.10547 0.15625-0.15625 0.37109-0.15625 0.64062v1.4688h-0.96875v-4.1562h0.96875v1.6094c0.13281-0.17578 0.28516-0.30469 0.45312-0.39062 0.16406-0.082031 0.34375-0.125 0.53125-0.125 0.34375 0 0.60156 0.10938 0.78125 0.32812 0.1875 0.21094 0.28125 0.51172 0.28125 0.90625z"/>
  </symbol>
  <symbol id="l" overflow="visible">
   <path d="m3.2344-2.5c0.11328-0.17578 0.25391-0.3125 0.42188-0.40625 0.16406-0.10156 0.35156-0.15625 0.5625-0.15625 0.33203 0 0.58594 0.10938 0.76562 0.32812 0.1875 0.21094 0.28125 0.51172 0.28125 0.90625v1.8281h-0.96875v-1.5625c0.007813-0.019531 0.015625-0.039062 0.015625-0.0625v-0.10938c0-0.21875-0.03125-0.375-0.09375-0.46875s-0.16406-0.14062-0.29688-0.14062c-0.1875 0-0.33594 0.078125-0.4375 0.23438-0.09375 0.14844-0.14062 0.35938-0.14062 0.64062v1.4688h-0.96875v-1.5625c0-0.33203-0.03125-0.54688-0.09375-0.64062-0.054688-0.09375-0.15234-0.14062-0.29688-0.14062-0.17969 0-0.32031 0.078125-0.42188 0.23438-0.09375 0.14844-0.14062 0.35938-0.14062 0.64062v1.4688h-0.96875v-2.9844h0.96875v0.4375c0.11328-0.17578 0.24219-0.30469 0.39062-0.39062 0.15625-0.082031 0.32812-0.125 0.51562-0.125 0.20703 0 0.39062 0.054688 0.54688 0.15625 0.15625 0.09375 0.27344 0.23047 0.35938 0.40625z"/>
  </symbol>
  <symbol id="u" overflow="visible">
   <path d="m3.2812-3.8594v0.84375c-0.21875-0.10156-0.43359-0.17578-0.64062-0.21875-0.21094-0.050781-0.40625-0.078125-0.59375-0.078125-0.25 0-0.43359 0.039062-0.54688 0.10938-0.11719 0.0625-0.17188 0.16797-0.17188 0.3125 0 0.10547 0.035156 0.1875 0.10938 0.25 0.082031 0.054687 0.22656 0.10156 0.4375 0.14062l0.4375 0.09375c0.44531 0.09375 0.75781 0.23047 0.9375 0.40625 0.1875 0.17969 0.28125 0.4375 0.28125 0.78125 0 0.4375-0.13281 0.76562-0.39062 0.98438-0.26172 0.21094-0.65625 0.3125-1.1875 0.3125-0.25 0-0.50781-0.027344-0.76562-0.078125-0.25-0.039062-0.50781-0.10938-0.76562-0.20312v-0.875c0.25781 0.13672 0.50391 0.24219 0.73438 0.3125 0.23828 0.0625 0.47266 0.09375 0.70312 0.09375 0.21875 0 0.38281-0.035156 0.5-0.10938 0.125-0.070312 0.1875-0.17578 0.1875-0.3125 0-0.125-0.042969-0.21875-0.125-0.28125-0.085937-0.070312-0.24609-0.13281-0.48438-0.1875l-0.39062-0.09375c-0.40625-0.082031-0.70312-0.21875-0.89062-0.40625-0.17969-0.1875-0.26562-0.44141-0.26562-0.76562 0-0.39453 0.125-0.69531 0.375-0.90625 0.25781-0.21875 0.62891-0.32812 1.1094-0.32812 0.22656 0 0.45703 0.023438 0.6875 0.0625 0.22656 0.03125 0.46875 0.078125 0.71875 0.14062z"/>
  </symbol>
  <symbol id="k" overflow="visible">
   <path d="m0.42188-1.1719v-1.8125h0.96875v0.29688 0.60938 0.48438c0 0.24219 0.003906 0.41797 0.015625 0.53125 0.007812 0.10547 0.03125 0.17969 0.0625 0.21875 0.039062 0.0625 0.09375 0.11719 0.15625 0.15625 0.0625 0.03125 0.13281 0.046875 0.21875 0.046875 0.19531 0 0.35156-0.078125 0.46875-0.23438 0.11328-0.15625 0.17188-0.36719 0.17188-0.64062v-1.4688h0.95312v2.9844h-0.95312v-0.4375c-0.14844 0.17969-0.30469 0.30859-0.46875 0.39062-0.15625 0.082031-0.33594 0.125-0.53125 0.125-0.34375 0-0.60938-0.10156-0.79688-0.3125-0.17969-0.21875-0.26562-0.53125-0.26562-0.9375z"/>
  </symbol>
  <symbol id="t" overflow="visible">
   <path d="m0.45312-4.1562h0.96875v2.2656l1.0938-1.0938h1.1094l-1.4531 1.3594 1.5625 1.625h-1.1562l-1.1562-1.25v1.25h-0.96875z"/>
  </symbol>
  <symbol id="j" overflow="visible">
   <path d="m0.45312-2.9844h0.96875v2.9844h-0.96875zm0-1.1719h0.96875v0.78125h-0.96875z"/>
  </symbol>
  <symbol id="i" overflow="visible">
   <path d="m3.4688-1.8281v1.8281h-0.96875v-1.3906c0-0.25781-0.007812-0.4375-0.015625-0.53125-0.011719-0.10156-0.03125-0.17578-0.0625-0.21875-0.03125-0.0625-0.085937-0.10938-0.15625-0.14062-0.0625-0.039062-0.13281-0.0625-0.20312-0.0625-0.21094 0-0.37109 0.078125-0.48438 0.23438-0.10547 0.15625-0.15625 0.37109-0.15625 0.64062v1.4688h-0.96875v-2.9844h0.96875v0.4375c0.13281-0.17578 0.28516-0.30469 0.45312-0.39062 0.16406-0.082031 0.34375-0.125 0.53125-0.125 0.34375 0 0.60156 0.10938 0.78125 0.32812 0.1875 0.21094 0.28125 0.51172 0.28125 0.90625z"/>
  </symbol>
  <symbol id="s" overflow="visible">
   <path d="m2.4219-4.1562v0.625h-0.51562c-0.13672 0-0.23438 0.027344-0.29688 0.078125-0.054687 0.054687-0.078125 0.13672-0.078125 0.25v0.21875h0.82812v0.67188h-0.82812v2.3125h-0.95312v-2.3125h-0.46875v-0.67188h0.46875v-0.21875c0-0.32031 0.085937-0.5625 0.26562-0.71875 0.1875-0.15625 0.47266-0.23438 0.85938-0.23438z"/>
  </symbol>
  <symbol id="e" overflow="visible">
   <path d="m1.875-2.375c-0.21094 0-0.37109 0.078125-0.48438 0.23438-0.10547 0.14844-0.15625 0.35938-0.15625 0.64062 0 0.29297 0.050781 0.51562 0.15625 0.67188 0.11328 0.14844 0.27344 0.21875 0.48438 0.21875 0.20703 0 0.36719-0.070313 0.48438-0.21875 0.11328-0.15625 0.17188-0.37891 0.17188-0.67188 0-0.28125-0.058594-0.49219-0.17188-0.64062-0.11719-0.15625-0.27734-0.23438-0.48438-0.23438zm0-0.6875c0.51953 0 0.92188 0.14062 1.2031 0.42188 0.28906 0.27344 0.4375 0.65234 0.4375 1.1406 0 0.5-0.14844 0.89062-0.4375 1.1719-0.28125 0.27344-0.68359 0.40625-1.2031 0.40625-0.51172 0-0.91406-0.13281-1.2031-0.40625-0.29297-0.28125-0.4375-0.67188-0.4375-1.1719 0-0.48828 0.14453-0.86719 0.4375-1.1406 0.28906-0.28125 0.69141-0.42188 1.2031-0.42188z"/>
  </symbol>
  <symbol id="r" overflow="visible">
   <path d="m0.5-3.9844h1.1562l1.4375 2.7344v-2.7344h0.98438v3.9844h-1.1562l-1.4375-2.7344v2.7344h-0.98438z"/>
  </symbol>
  <symbol id="q" overflow="visible">
   <path d="m0.5-3.9844h1.7031c0.50781 0 0.89844 0.11719 1.1719 0.34375 0.26953 0.21875 0.40625 0.53906 0.40625 0.95312 0 0.41797-0.13672 0.74219-0.40625 0.96875-0.27344 0.21875-0.66406 0.32812-1.1719 0.32812h-0.67188v1.3906h-1.0312zm1.0312 0.75v1.1094h0.5625c0.19531 0 0.34766-0.046875 0.45312-0.14062 0.11328-0.10156 0.17188-0.24219 0.17188-0.42188 0-0.17578-0.058594-0.3125-0.17188-0.40625-0.10547-0.09375-0.25781-0.14062-0.45312-0.14062z"/>
  </symbol>
  <symbol id="p" overflow="visible">
   <path d="m0.45312-2.9844h0.96875v2.9375c0 0.39453-0.10156 0.69531-0.29688 0.90625-0.1875 0.21875-0.46484 0.32812-0.82812 0.32812h-0.48438v-0.64062h0.17188c0.17578 0 0.29688-0.042969 0.35938-0.125 0.070312-0.074219 0.10938-0.23047 0.10938-0.46875zm0-1.1719h0.96875v0.78125h-0.96875z"/>
  </symbol>
 </defs>
 <g>
  <path d="m601.91 227.23h-6.4023l-9.6445-34.266c-0.95703-3.3945-4.0508-5.7422-7.5781-5.7422h-30.422l6.043-47.008h24.375c4.3477 0 7.875-3.5234 7.875-7.875 0-4.3477-3.5273-7.875-7.875-7.875h-31.309c-3.9609 0-7.3047 2.9453-7.8086 6.875l-7.1797 55.891h-56.074c-3.5273 0-6.625 2.3438-7.5781 5.7383l-9.6445 34.266h-5.7617l4.625-36.992c0.53516-4.3125-2.5234-8.25-6.8398-8.7891l-26.484-3.3125 3.2969-49.449h0.003907c0.28516-4.3359-2.9922-8.082-7.3281-8.375l-35.953-2.3906v-0.003907c-4.3359-0.28516-8.0859 2.9922-8.3789 7.3281l-1.1914 17.871-26.977 0.003906-4.3516-43.074c-0.21094-2.1016-1.2578-4.0273-2.9023-5.3477-1.6445-1.3203-3.75-1.9258-5.8477-1.6797l-35.793 4.207c-2.0742 0.24219-3.9648 1.3008-5.2617 2.9414-1.293 1.6367-1.8828 3.7227-1.6406 5.7969l8.4844 72.133-25.742 3.6758c-4.3047 0.61328-7.2969 4.6016-6.6836 8.9102l5.2227 36.547h-15.641v-0.003906c-2.2188 0-4.3359 0.9375-5.8281 2.5781-1.4922 1.6406-2.2227 3.8359-2.0117 6.0469l3.3477 35.059c-15.977-12.004-35.422-18.488-55.406-18.469h-0.097656c-41.359 0-86.941 27.727-89.387 88.652 0 0.0625 0.023438 0.11719 0.023438 0.17969s-0.03125 0.089844-0.03125 0.13672v31.562c-16.723 13.301-16.188 12.586-17.227 14.578-3.7695 7.2656 9.5781 27.363 9.7188 27.562v0.003906c2.1445 3.2266 4.6641 6.1836 7.5117 8.8125v11.426c-0.035156 6.0938 2.0898 12 5.9961 16.672 3.9062 4.6758 9.3398 7.8203 15.34 8.8711 22.457 4.0312 45.227 6.082 68.043 6.125 22.812-0.039062 45.578-2.082 68.031-6.1055 3.7109-0.66797 7.2227-2.1641 10.277-4.375 1.4492 1.6367 3.5273 2.5859 5.7188 2.6094h168.2c4.0156 0 7.3867-3.0156 7.832-7.0078 2.2344-20.211 4.2031-38 5.9648-53.883l4.5 53.676c0.33984 4.082 3.7539 7.2188 7.8477 7.2188h102.38c4.0938 0 7.5078-3.1367 7.8477-7.2188l15.145-181.09h0.63281c4.3477 0 7.875-3.5234 7.875-7.875v-27.875c0-4.3477-3.5273-7.8711-7.875-7.8711zm-178.73-33.355 17.766 2.2227-3.8906 31.133c-12.945 0-11.961-0.15234-16.133 0.48828zm-32.129-59.719 20.234 1.3516-6.6602 99.902c-6.8242 5.9961-10.75 14.633-10.777 23.715-0.023437 2.2852-1.8906 4.1172-4.1758 4.0977h-7.2305c2.9961-44.965 7.1523-107.14 8.6094-129.07zm-42.145 24.434 24.711 0.28516-6.9805 104.34h-6.8125l-4.3281-42.844zm-20.43-48.992 15.516 153.62h-2.3555l0.003906-0.003906c-2.2812 0.019531-4.1523-1.8125-4.1758-4.0938-0.027344-9.1016-3.9688-17.75-10.816-23.746l-7.4297-52.008c-0.29297-1.9961-1.3516-3.8008-2.9531-5.0312l-7.8086-66.379zm-23.734 83.793 4.8945 34.25c-4.3906-0.56641-0.22656-0.41406-20.547-0.41406l-4.4258-30.977zm-107.2 74.805h0.078126c36.355 0.035156 68.762 24.641 73.172 66.988v0.003906c-24.125 4.8164-48.656 7.293-73.258 7.4023-24.57-0.11328-49.07-2.5938-73.16-7.4023 4.8633-45.98 40.605-66.992 73.168-66.992zm-73.645 82.98 0.19531 0.039062 0.003906-0.003906c24.203 4.6523 48.785 7.0391 73.434 7.1289 24.738-0.082031 49.418-2.4805 73.707-7.1641v18.453c-48.98 5.0469-98.355 5.0469-147.34 0zm147.34 84.188v-0.003907c-0.015625 4.9453-3.5547 9.1719-8.4219 10.051-21.547 3.8633-43.391 5.8281-65.281 5.8672-21.891-0.042969-43.738-2.0078-65.285-5.875-4.8281-0.91016-8.332-5.1211-8.3477-10.035v-4.5156c23.969-0.75781 22.324-12.102 37.328-12.102 14.492 0 15.809 12.051 36.227 12.051 20.332 0 22.086-12.051 36.301-12.051 14.367 0 17.266 13.023 37.484 11.961zm-1.1797-20.32c-14.098 0-16.012-12.051-36.301-12.051-20.164 0-22.16 12.051-36.301 12.051-14.219 0-15.75-12.051-36.227-12.051-20.5 0-21.227 12.008-37.062 12.09-5.8281 0.45312-13.695-13.004-17.094-21.125l11.316-9c52.637 5.6016 105.72 5.6016 158.36 0l11.215 8.9141c-2.9453 7.4883-9.8555 21.172-17.906 21.172zm172.66 28.359h-154.1c-1.8984-17.18-1.625-13.109-1.625-19.461 11.637-10.145 17.168-28.352 17.809-30.578v-0.003907c0.88281-3.0586-0.17188-6.3516-2.6641-8.3359l-15.145-12.039v-31.57c0-0.042969-0.027344-0.078125-0.027344-0.12109 0-0.0625 0.027344-0.11719 0.023438-0.17969-0.80859-21.285-6.9922-38.438-16.367-51.855l-4.418-46.281h39.379c4.2773 0.007812 8.3828 1.707 11.406 4.7344 3.0273 3.0273 4.7305 7.1289 4.7344 11.41 0.015625 5.2734 2.1211 10.324 5.8594 14.043 3.7344 3.7188 8.793 5.8086 14.066 5.8008h48.035c5.2695 0.007812 10.332-2.082 14.066-5.8008 3.7344-3.7188 5.8438-8.7695 5.8594-14.043-0.046874-4.2969 1.6367-8.4297 4.6758-11.465 3.0352-3.0391 7.168-4.7266 11.465-4.6797h39.195c-2.5625 23.855-2.7305 24.203-22.227 200.43zm39.156-240.42h90.445l6.8281 24.258-104.1-0.003907zm89.168 240.42h-87.887l-10.59-126.27c0.73438-6.5859-0.12891 1.1133 5.1914-46.277h107.72zm22.996-188.3h-114.55l0.070313-0.66016 1.2812-11.461h113.2zm-228.37 56.566h-0.007812c-26.109 0-54.738 17.297-55.91 55.492v36.066l0.003906 0.003906c0 4.3477 3.5234 7.875 7.875 7.875h96.074c4.3477 0 7.875-3.5273 7.875-7.875v-36.062-0.23828c-1.1602-37.965-29.797-55.254-55.91-55.262zm40.16 83.688h-80.32v-27.953c0.85156-27.617 20.781-39.98 40.164-39.98 19.359 0.007813 39.266 12.336 40.164 39.867zm-251.53-67.43c-3.0742-3.0742-3.0742-8.0586 0-11.137l5.8242-5.8203c3.0742-3.0742 8.0625-3.0781 11.137 0 3.0781 3.0742 3.0781 8.0586 0.003906 11.137l-5.8281 5.8203c-1.4766 1.4805-3.4805 2.3086-5.5703 2.3086-2.0859 0-4.0898-0.83203-5.5664-2.3086zm34.234-31.047c-3.0781-3.0742-3.0781-8.0586-0.003906-11.137 3.0742-3.0742 8.0625-3.0781 11.137 0l6.9258 6.9258c1.5234 1.4648 2.3945 3.4805 2.4141 5.5977 0.019531 2.1133-0.80859 4.1484-2.3047 5.6406-1.4961 1.4961-3.5273 2.3281-5.6445 2.3086-2.1133-0.019531-4.1328-0.89062-5.5977-2.4141zm35.754 17.25h-0.003906c2.0781-3.8164 6.8477-5.2422 10.676-3.1836l5.8281 3.1523h-0.003906c3.8281 2.0742 5.2539 6.8516 3.1797 10.68-2.0703 3.8281-6.8516 5.25-10.676 3.1797l-5.8242-3.1523c-3.8281-2.0703-5.25-6.8516-3.1797-10.676zm302.82 102.27c17.098 0 34.684-18.105 35.438-58.547v-0.29297c-0.75391-40.445-18.336-58.539-35.438-58.547-17.094 0-34.684 18.109-35.438 58.844 0.74609 40.441 18.332 58.543 35.434 58.543zm0-101.64c9.1406 0.007813 19.133 15.051 19.688 42.941-0.55469 27.891-10.547 42.941-19.688 42.941s-19.168-15.105-19.688-42.797c0.51562-27.98 10.527-43.082 19.684-43.082z"/>
  <use x="70" y="576.40625" xlink:href="#v"/>
  <use x="74.011719" y="576.40625" xlink:href="#d"/>
  <use x="76.710938" y="576.40625" xlink:href="#c"/>
  <use x="80.417969" y="576.40625" xlink:href="#b"/>
  <use x="84.109375" y="576.40625" xlink:href="#a"/>
  <use x="86.722656" y="576.40625" xlink:href="#c"/>
  <use x="90.433594" y="576.40625" xlink:href="#h"/>
  <use x="96.25" y="576.40625" xlink:href="#g"/>
  <use x="100.167969" y="576.40625" xlink:href="#o"/>
  <use x="105.636719" y="576.40625" xlink:href="#f"/>
  <use x="109.867188" y="576.40625" xlink:href="#n"/>
  <use x="113.109375" y="576.40625" xlink:href="#m"/>
  <use x="117.003906" y="576.40625" xlink:href="#l"/>
  <use x="122.699219" y="576.40625" xlink:href="#b"/>
  <use x="126.390625" y="576.40625" xlink:href="#h"/>
  <use x="132.210938" y="576.40625" xlink:href="#u"/>
  <use x="136.148438" y="576.40625" xlink:href="#k"/>
  <use x="140.042969" y="576.40625" xlink:href="#g"/>
  <use x="143.957031" y="576.40625" xlink:href="#t"/>
  <use x="147.59375" y="576.40625" xlink:href="#j"/>
  <use x="151.371094" y="576.40625" xlink:href="#f"/>
  <use x="155.605469" y="576.40625" xlink:href="#d"/>
  <use x="158.300781" y="576.40625" xlink:href="#j"/>
  <use x="160.175781" y="576.40625" xlink:href="#i"/>
  <use x="164.070312" y="576.40625" xlink:href="#b"/>
  <use x="167.757812" y="576.40625" xlink:href="#a"/>
  <use x="170.375" y="576.40625" xlink:href="#b"/>
  <use x="70" y="581.875" xlink:href="#s"/>
  <use x="72.378906" y="581.875" xlink:href="#d"/>
  <use x="75.078125" y="581.875" xlink:href="#e"/>
  <use x="78.832031" y="581.875" xlink:href="#l"/>
  <use x="86.4375" y="581.875" xlink:href="#a"/>
  <use x="89.050781" y="581.875" xlink:href="#m"/>
  <use x="92.941406" y="581.875" xlink:href="#c"/>
  <use x="98.554688" y="581.875" xlink:href="#r"/>
  <use x="103.132812" y="581.875" xlink:href="#e"/>
  <use x="106.890625" y="581.875" xlink:href="#k"/>
  <use x="110.785156" y="581.875" xlink:href="#i"/>
  <use x="116.582031" y="581.875" xlink:href="#q"/>
  <use x="120.589844" y="581.875" xlink:href="#d"/>
  <use x="123.285156" y="581.875" xlink:href="#e"/>
  <use x="127.042969" y="581.875" xlink:href="#p"/>
  <use x="128.917969" y="581.875" xlink:href="#c"/>
  <use x="132.625" y="581.875" xlink:href="#n"/>
  <use x="135.867188" y="581.875" xlink:href="#a"/>
 </g>
</svg>
