<?xml version="1.0" encoding="UTF-8"?>
<svg width="700pt" height="700pt" version="1.1" viewBox="0 0 700 700" xmlns="http://www.w3.org/2000/svg" xmlns:xlink="http://www.w3.org/1999/xlink">
 <defs>
  <symbol id="m" overflow="visible">
   <path d="m30.25-1.8125c-1.5625 0.8125-3.1875 1.4219-4.875 1.8281-1.6875 0.41406-3.4492 0.625-5.2812 0.625-5.4922 0-9.8398-1.5312-13.047-4.5938-3.1992-3.0703-4.7969-7.2266-4.7969-12.469 0-5.2578 1.5977-9.4219 4.7969-12.484 3.207-3.0703 7.5547-4.6094 13.047-4.6094 1.832 0 3.5938 0.21094 5.2812 0.625 1.6875 0.40625 3.3125 1.0156 4.875 1.8281v6.8125c-1.5742-1.0703-3.125-1.8594-4.6562-2.3594-1.5234-0.5-3.1328-0.75-4.8281-0.75-3.0234 0-5.4023 0.96875-7.1406 2.9062-1.7305 1.9375-2.5938 4.6172-2.5938 8.0312 0 3.3984 0.86328 6.0625 2.5938 8 1.7383 1.9375 4.1172 2.9062 7.1406 2.9062 1.6953 0 3.3047-0.25 4.8281-0.75 1.5312-0.5 3.082-1.2852 4.6562-2.3594z"/>
  </symbol>
  <symbol id="h" overflow="visible">
   <path d="m22.141-17.969c-0.69922-0.32031-1.3906-0.5625-2.0781-0.71875-0.67969-0.15625-1.3594-0.23438-2.0469-0.23438-2.0312 0-3.5938 0.65234-4.6875 1.9531-1.0938 1.3047-1.6406 3.168-1.6406 5.5938v11.375h-7.8906v-24.688h7.8906v4.0469c1.0078-1.6133 2.1719-2.7891 3.4844-3.5312 1.3203-0.75 2.8984-1.125 4.7344-1.125 0.26953 0 0.55469 0.015625 0.85938 0.046875 0.3125 0.023438 0.75781 0.070312 1.3438 0.14062z"/>
  </symbol>
  <symbol id="c" overflow="visible">
   <path d="m28.438-12.406v2.2344h-18.453c0.19531 1.8555 0.86719 3.2461 2.0156 4.1719 1.1445 0.92969 2.7422 1.3906 4.7969 1.3906 1.6641 0 3.3672-0.24219 5.1094-0.73438 1.7383-0.48828 3.5312-1.2344 5.375-2.2344v6.0781c-1.875 0.71094-3.7461 1.2422-5.6094 1.5938-1.8672 0.36328-3.7305 0.54688-5.5938 0.54688-4.4688 0-7.9453-1.1328-10.422-3.4062-2.4805-2.2695-3.7188-5.457-3.7188-9.5625 0-4.0195 1.2109-7.1875 3.6406-9.5 2.4375-2.3125 5.7852-3.4688 10.047-3.4688 3.8828 0 6.9883 1.1719 9.3125 3.5156 2.332 2.3359 3.5 5.4609 3.5 9.375zm-8.1094-2.625c0-1.5-0.4375-2.707-1.3125-3.625-0.875-0.92578-2.0156-1.3906-3.4219-1.3906-1.5312 0-2.7773 0.43359-3.7344 1.2969-0.96094 0.85547-1.5547 2.0938-1.7812 3.7188z"/>
  </symbol>
  <symbol id="b" overflow="visible">
   <path d="m14.859-11.109c-1.6484 0-2.8867 0.28125-3.7188 0.84375-0.82422 0.55469-1.2344 1.3711-1.2344 2.4531 0 1 0.33203 1.7891 1 2.3594 0.66406 0.5625 1.5938 0.84375 2.7812 0.84375 1.4883 0 2.7383-0.53125 3.75-1.5938 1.0195-1.0703 1.5312-2.4062 1.5312-4v-0.90625zm12.062-2.9844v14.094h-7.9531v-3.6562c-1.0625 1.5-2.2578 2.5938-3.5781 3.2812-1.3242 0.67578-2.9336 1.0156-4.8281 1.0156-2.5625 0-4.6406-0.74219-6.2344-2.2344-1.5938-1.5-2.3906-3.4375-2.3906-5.8125 0-2.8945 0.99219-5.0195 2.9844-6.375 2-1.3516 5.1289-2.0312 9.3906-2.0312h4.6562v-0.60938c0-1.25-0.49609-2.1641-1.4844-2.75-0.99219-0.58203-2.5273-0.875-4.6094-0.875-1.6875 0-3.2617 0.17188-4.7188 0.51562-1.4609 0.33594-2.8125 0.83984-4.0625 1.5156v-6.0156c1.6953-0.41406 3.3945-0.72656 5.0938-0.9375 1.707-0.21875 3.4141-0.32812 5.125-0.32812 4.4453 0 7.6602 0.88281 9.6406 2.6406 1.9766 1.7617 2.9688 4.6172 2.9688 8.5625z"/>
  </symbol>
  <symbol id="g" overflow="visible">
   <path d="m12.406-31.703v7.0156h8.1406v5.6406h-8.1406v10.469c0 1.1484 0.22656 1.9219 0.6875 2.3281 0.45703 0.40625 1.3633 0.60938 2.7188 0.60938h4.0469v5.6406h-6.7656c-3.1172 0-5.3242-0.64844-6.625-1.9531-1.3047-1.3008-1.9531-3.5078-1.9531-6.625v-10.469h-3.9219v-5.6406h3.9219v-7.0156z"/>
  </symbol>
  <symbol id="f" overflow="visible">
   <path d="m20.594-21.078v-13.234h7.9375v34.312h-7.9375v-3.5781c-1.0859 1.4609-2.2812 2.5273-3.5938 3.2031s-2.8281 1.0156-4.5469 1.0156c-3.043 0-5.543-1.207-7.5-3.625-1.9492-2.4141-2.9219-5.5312-2.9219-9.3438 0-3.8008 0.97266-6.9102 2.9219-9.3281 1.957-2.4258 4.457-3.6406 7.5-3.6406 1.707 0 3.2188 0.34375 4.5312 1.0312 1.3203 0.6875 2.5234 1.75 3.6094 3.1875zm-5.2031 15.984c1.6875 0 2.9727-0.61328 3.8594-1.8438 0.89453-1.2383 1.3438-3.0352 1.3438-5.3906 0-2.3516-0.44922-4.1445-1.3438-5.375-0.88672-1.2383-2.1719-1.8594-3.8594-1.8594-1.6797 0-2.9648 0.62109-3.8594 1.8594-0.88672 1.2305-1.3281 3.0234-1.3281 5.375 0 2.3555 0.44141 4.1523 1.3281 5.3906 0.89453 1.2305 2.1797 1.8438 3.8594 1.8438z"/>
  </symbol>
  <symbol id="e" overflow="visible">
   <path d="m16.938-5.0938c1.6875 0 2.9727-0.61328 3.8594-1.8438 0.89453-1.2383 1.3438-3.0352 1.3438-5.3906 0-2.3516-0.44922-4.1445-1.3438-5.375-0.88672-1.2383-2.1719-1.8594-3.8594-1.8594-1.6992 0-3 0.625-3.9062 1.875-0.89844 1.2422-1.3438 3.0273-1.3438 5.3594 0 2.3438 0.44531 4.1367 1.3438 5.375 0.90625 1.2422 2.207 1.8594 3.9062 1.8594zm-5.25-15.984c1.082-1.4375 2.2852-2.5 3.6094-3.1875 1.3203-0.6875 2.8438-1.0312 4.5625-1.0312 3.0508 0 5.5508 1.2148 7.5 3.6406 1.957 2.418 2.9375 5.5273 2.9375 9.3281 0 3.8125-0.98047 6.9297-2.9375 9.3438-1.9492 2.418-4.4492 3.625-7.5 3.625-1.7188 0-3.2422-0.33984-4.5625-1.0156-1.3242-0.6875-2.5273-1.7539-3.6094-3.2031v3.5781h-7.8906v-34.312h7.8906z"/>
  </symbol>
  <symbol id="a" overflow="visible">
   <path d="m0.54688-24.688h7.8906l6.6406 16.75 5.6406-16.75h7.9062l-10.391 27.031c-1.043 2.7383-2.2617 4.6562-3.6562 5.75-1.3867 1.1016-3.2188 1.6562-5.5 1.6562h-4.5625v-5.1875h2.4688c1.3438 0 2.3164-0.21484 2.9219-0.64062 0.61328-0.42969 1.0859-1.1953 1.4219-2.2969l0.21875-0.67188z"/>
  </symbol>
  <symbol id="d" overflow="visible">
   <path d="m4.1406-32.922h22.906v6.4219h-14.406v6.125h13.547v6.4219h-13.547v7.5312h14.906v6.4219h-23.406z"/>
  </symbol>
  <symbol id="l" overflow="visible">
   <path d="m3.5312-9.6094v-15.078h7.9375v2.4688c0 1.3359-0.011719 3.0117-0.03125 5.0312-0.011719 2.0234-0.015625 3.3711-0.015625 4.0469 0 1.9805 0.050781 3.4062 0.15625 4.2812 0.10156 0.875 0.28125 1.5117 0.53125 1.9062 0.32031 0.52344 0.74219 0.92188 1.2656 1.2031 0.51953 0.28125 1.1172 0.42188 1.7969 0.42188 1.6445 0 2.9375-0.62891 3.875-1.8906 0.94531-1.2695 1.4219-3.0312 1.4219-5.2812v-12.188h7.8906v24.688h-7.8906v-3.5781c-1.1992 1.4492-2.4648 2.5156-3.7969 3.2031-1.3242 0.67578-2.7891 1.0156-4.3906 1.0156-2.8555 0-5.0273-0.875-6.5156-2.625-1.4922-1.75-2.2344-4.2891-2.2344-7.625z"/>
  </symbol>
  <symbol id="k" overflow="visible">
   <path d="m23.75-23.922v6.4375c-1.0742-0.73828-2.1523-1.2812-3.2344-1.625-1.0859-0.35156-2.2031-0.53125-3.3594-0.53125-2.2109 0-3.9297 0.64844-5.1562 1.9375-1.2188 1.2812-1.8281 3.0742-1.8281 5.375 0 2.3125 0.60938 4.1172 1.8281 5.4062 1.2266 1.2812 2.9453 1.9219 5.1562 1.9219 1.2266 0 2.3945-0.17969 3.5-0.54688 1.1133-0.375 2.1445-0.92188 3.0938-1.6406v6.4531c-1.2422 0.46094-2.4961 0.80078-3.7656 1.0312-1.2734 0.22656-2.5469 0.34375-3.8281 0.34375-4.4492 0-7.9336-1.1406-10.453-3.4219-2.5117-2.2891-3.7656-5.4727-3.7656-9.5469 0-4.0703 1.2539-7.25 3.7656-9.5312 2.5195-2.2891 6.0039-3.4375 10.453-3.4375 1.3008 0 2.5781 0.11719 3.8281 0.34375 1.2578 0.23047 2.5156 0.57422 3.7656 1.0312z"/>
  </symbol>
  <symbol id="j" overflow="visible">
   <path d="m3.7969-34.312h7.8906v34.312h-7.8906z"/>
  </symbol>
  <symbol id="i" overflow="visible">
   <path d="m11.688-3.5781v12.969h-7.8906v-34.078h7.8906v3.6094c1.082-1.4375 2.2852-2.5 3.6094-3.1875 1.3203-0.6875 2.8438-1.0312 4.5625-1.0312 3.0508 0 5.5508 1.2148 7.5 3.6406 1.957 2.418 2.9375 5.5273 2.9375 9.3281 0 3.8125-0.98047 6.9297-2.9375 9.3438-1.9492 2.418-4.4492 3.625-7.5 3.625-1.7188 0-3.2422-0.33984-4.5625-1.0156-1.3242-0.6875-2.5273-1.7539-3.6094-3.2031zm5.25-15.984c-1.6992 0-3 0.625-3.9062 1.875-0.89844 1.2422-1.3438 3.0273-1.3438 5.3594 0 2.3438 0.44531 4.1367 1.3438 5.375 0.90625 1.2422 2.207 1.8594 3.9062 1.8594 1.6875 0 2.9727-0.61328 3.8594-1.8438 0.89453-1.2383 1.3438-3.0352 1.3438-5.3906 0-2.3516-0.44922-4.1445-1.3438-5.375-0.88672-1.2383-2.1719-1.8594-3.8594-1.8594z"/>
  </symbol>
 </defs>
 <g>
  <path d="m611.93 397.42h-0.53125c-0.90234-8.1016-2.9805-15.844-6.0977-23.051 15.734-15.273 24.695-36.09 24.695-58.238 0-44.816-36.473-81.289-81.289-81.289-11.234 0-22.148 2.375-32.156 6.7031-7.5859-14.777-22.961-24.77-40.102-24.77-24.902 0-45.16 20.258-45.16 45.16 0 6.9531 1.7617 13.711 4.7969 19.863-24.418 14.047-40.93 40.34-40.93 70.461 0 16.25 4.9688 31.902 13.836 45.16h-36.934c3.1211-5.3359 5.0352-11.453 5.0352-18.062 0-15.121-9.3555-28.055-22.562-33.438l12.398-93.016h10.164c9.9609 0 18.066-8.1016 18.066-18.066v-18.066c0-9.9609-8.1016-18.066-18.066-18.066h-9.4922c-4.5-58.727-52.316-105.38-111.51-108.11l3.5312-61.809c0.45312-7.2266-1.9336-14.199-6.7305-19.629-4.7852-5.4297-11.434-8.6602-19.031-9.1328l-1.2188-0.027344c-14.297 0-26.203 11.156-27.105 25.445l-3.7578 65.602c-55.812 6.0508-99.906 51.355-104.22 107.66h-9.4922c-9.9609 0-18.066 8.1016-18.066 18.066v18.066c0 9.9609 8.1016 18.066 18.066 18.066h10.152l30.898 231.78c2.9883 22.34 22.227 39.184 44.773 39.184h54.051l2.25 13.484c2.1797 13.125 13.426 22.645 26.723 22.645h77.777c13.305 0 24.539-9.5195 26.727-22.645l14.297-85.742h20.828l14.289 85.742c2.1875 13.125 13.43 22.645 26.727 22.645h131.97c13.305 0 24.539-9.5195 26.727-22.645l14.301-85.742h1.3789c9.9609 0 18.066-8.1016 18.066-18.066v-18.066c0-9.9609-8.1016-18.062-18.066-18.062zm-37.039 0c-4.1992-20.586-22.438-36.129-44.25-36.129s-40.051 15.543-44.25 36.129h-18.254c4.4062-30.594 30.719-54.195 62.504-54.195 31.785 0 58.094 23.602 62.504 54.195zm-18.816 0h-50.859c3.7383-10.488 13.676-18.066 25.434-18.066 11.762 0.003907 21.688 7.582 25.426 18.066zm-98.676-25.992c-5.0234-5.0039-8.0469-11.844-8.0469-19.168 0-14.938 12.156-27.098 27.098-27.098 7.3242 0 14.164 3.0273 19.168 8.0469-16.695 8.0117-30.207 21.527-38.219 38.219zm111.04-36.879c-4.5156-2.3828-9.2656-4.3633-14.227-5.8711-4.0547-13.484-11.344-25.281-20.93-34.648 4.4727-3.1328 9.7578-4.9961 15.422-4.9961 14.938 0 27.098 12.156 27.098 27.098-0.003906 6.9102-2.7305 13.441-7.3633 18.418zm43.488-18.418c0 15.688-5.8164 30.492-16.078 41.992-3.6211-4.8789-7.75-9.3477-12.348-13.297 6.5859-8.0039 10.363-18.117 10.363-28.695 0-24.902-20.258-45.16-45.16-45.16-11.391 0-21.992 4.2109-30.215 11.66-5.4453-3.2695-11.281-5.918-17.441-7.8477 11.895-13.66 29.184-21.879 47.656-21.879 34.863 0 63.223 28.363 63.223 63.227zm-162.58-54.195c0-14.938 12.156-27.098 27.098-27.098 10.613 0 20.113 6.3594 24.496 15.688-7.6875 5.5898-14.352 12.555-19.754 20.641-1.5742-0.089843-3.1445-0.19531-4.7422-0.19531-8.3086 0-16.332 1.2656-23.891 3.5938-2.043-3.875-3.207-8.1836-3.207-12.629zm-36.129 90.324c0-34.863 28.359-63.227 63.227-63.227 25.027 0 46.84 14.453 57.066 36.273-0.96094-0.035157-1.9062-0.14453-2.875-0.14453-5.7891 0-11.426 0.63281-16.871 1.7891-8.3203-12.23-22.23-19.852-37.32-19.852-24.902 0-45.16 20.258-45.16 45.16 0 15.094 7.625 29.004 19.852 37.32-0.54297 2.5742-0.95703 5.1836-1.2539 7.8398h-17.551c-12.141-11.867-19.113-28.105-19.113-45.16zm-72.258 45.16h-108.39c0-9.9609 8.0938-18.066 17.793-18.066h0.007812l15.148 0.98438-4.6875-12.934c-0.78516-2.1562-1.168-4.1602-1.168-6.1133 0-9.9609 8.1016-18.066 18.066-18.066 9.9609 0 18.066 8.1016 18.066 18.066v9.0312h9.0312c3.0078 0 5.9688 0.82031 8.8242 2.4375l7.4805 4.2344 4.6055-7.2617c3.3477-5.2773 9.0391-8.4414 15.219-8.4414 9.9609 0 18.066 8.1016 18.066 18.066-0.003906 9.9609-8.1055 18.062-18.066 18.062zm-130.34-144.52h18.09l-4.1094 71.969c-5.8242-3.3047-11.668-6.875-17.496-10.523zm33.625 44.828c12.25-5.6641 23.539-8.6992 33.484-8.6992 37.078 0 60.418 9.1133 62.902 24.367l-4.0391 30.258c-8.0664 0.98438-15.527 4.4805-21.215 10.234-0.80469-0.25391-1.6172-0.48047-2.4375-0.67578-3.6719-16.039-18.066-28.055-35.211-28.055-10.777 0-20.359 4.8398-26.98 12.348-2.8359-1.0742-5.6914-2.25-8.5703-3.5586zm99.898-10.648c-11.488-8.9688-31.512-16.113-66.414-16.113-10.055 0-20.902 2.2852-32.336 6.6289l1.4102-24.695h101.89zm5.3828-88.371h-99.625l5.1484-90.098c49.715 2.2031 90.023 40.988 94.477 90.098zm-130.65-90.324h18.09l-5.1562 90.324h-18.09zm13.504-90.32 0.64844 0.007813c2.5117 0.16406 4.6875 1.2109 6.3047 3.043 1.6172 1.832 2.3945 4.1016 2.2383 6.5938l-3.5742 62.613h-18.09l3.6406-63.785c0.30469-4.7539 4.2969-8.4727 8.832-8.4727zm-31.656 91.395-5.1055 89.25h-80.008c4.1641-45.984 39.777-82.918 85.113-89.25zm-112.67 107.31h289.03l0.007813 18.066h-289.04zm104.47 36.129-2.8828 50.328c-25.082-16.043-48.855-30.438-70.758-31.945l-2.4531-18.383zm-18.648 252.9c-13.52 0-25.066-10.105-26.863-23.52l-25.672-192.52c17.766 2.9609 39.879 16.691 62.973 31.496 18.996 12.176 38.551 24.703 58.113 32.426-0.51953 2.4648-0.82812 4.9922-0.82812 7.6016 0 0.37891 0.007813 0.75781 0.019531 1.1367-15.574 4.0117-27.117 18.184-27.117 34.992-9.9609 0-18.066 8.1016-18.066 18.066v18.066c0 9.9609 8.1016 18.066 18.066 18.066h1.3828l9.0312 54.195zm169.71 28.578c-0.73047 4.375-4.4805 7.5508-8.9062 7.5508h-77.777c-4.4336 0-8.1836-3.1797-8.9062-7.5508l-13.809-82.77h123.2zm234.84 0c-0.73437 4.375-4.4805 7.5508-8.9062 7.5508h-131.98c-4.4336 0-8.1836-3.1797-8.9062-7.5508l-13.801-82.77h177.39zm-363.93-100.84v-18.066h397.42l0.007812 18.066z"/>
  <path d="m472.41 172.58c-9.7266 4.8711-23.059 11.527-23.059 26.133h18.066c0-3.1992 5.418-6.1406 13.07-9.9727 9.7227-4.8594 23.055-11.516 23.055-26.121 0-14.613-13.332-21.27-23.059-26.129-7.6484-3.8242-13.07-6.7852-13.07-9.9727 0-3.207 5.418-6.168 13.07-10 9.7266-4.875 23.059-11.543 23.059-26.164 0-14.625-13.324-21.281-23.051-26.156-7.6562-3.8242-13.078-6.7852-13.078-10h-18.066c0 14.625 13.332 21.289 23.059 26.156 7.6562 3.8281 13.074 6.793 13.074 10 0 3.2148-5.418 6.1797-13.078 10.008-9.7305 4.8672-23.051 11.531-23.051 26.156 0 14.613 13.332 21.27 23.059 26.129 7.6523 3.8203 13.07 6.7734 13.07 9.9727 0 3.1953-5.418 6.1406-13.07 9.9609z"/>
  <path d="m562.74 190.62c-9.7305 4.8594-23.062 11.516-23.062 26.121h18.066c0-3.1992 5.418-6.1406 13.07-9.9727 9.7266-4.8594 23.059-11.516 23.059-26.121 0-14.613-13.332-21.27-23.059-26.129-7.6523-3.8203-13.07-6.7852-13.07-9.9727 0-3.207 5.418-6.168 13.07-10 9.7266-4.875 23.059-11.543 23.059-26.156s-13.332-21.289-23.059-26.156c-7.6523-3.8398-13.07-6.793-13.07-10.008h-18.066c0 14.625 13.324 21.289 23.051 26.156 7.6602 3.832 13.078 6.793 13.078 10.008 0 3.2148-5.418 6.1797-13.078 10.008-9.7266 4.8594-23.051 11.527-23.051 26.148 0 14.613 13.332 21.27 23.059 26.129 7.6523 3.8242 13.07 6.7773 13.07 9.9727 0 3.1992-5.418 6.1406-13.066 9.9727z"/>
  <use x="70" y="695.484375" xlink:href="#m"/>
  <use x="103.144531" y="695.484375" xlink:href="#h"/>
  <use x="125.414063" y="695.484375" xlink:href="#c"/>
  <use x="156.042969" y="695.484375" xlink:href="#b"/>
  <use x="186.519531" y="695.484375" xlink:href="#g"/>
  <use x="208.109375" y="695.484375" xlink:href="#c"/>
  <use x="238.738281" y="695.484375" xlink:href="#f"/>
  <use x="286.789062" y="695.484375" xlink:href="#e"/>
  <use x="319.113281" y="695.484375" xlink:href="#a"/>
  <use x="364.277344" y="695.484375" xlink:href="#d"/>
  <use x="395.125" y="695.484375" xlink:href="#l"/>
  <use x="427.277344" y="695.484375" xlink:href="#k"/>
  <use x="454.046875" y="695.484375" xlink:href="#b"/>
  <use x="484.523438" y="695.484375" xlink:href="#j"/>
  <use x="500.003906" y="695.484375" xlink:href="#a"/>
  <use x="529.441406" y="695.484375" xlink:href="#i"/>
 </g>
</svg>
